# xmcd
#
# Track frame offsets: 
#        151
#        15228
#        32789
#        47052
#        60927
#        74698
#        88327
#        102340
#        115529
#        130212
#        142795
#        158756
#
# Disc length: 2409 seconds
#
# Revision: 1
# Processed by: cddbd v1.5.2PL0 Copyright (c) Steve Scherf et al.
# Submitted via: ExactAudioCopy v0.99pb5
#
DISCID=9609670c
DTITLE=Celia Cruz Y La Sonora Matancera - La Reina Del Tumbao, Vol.1
DYEAR=2004
DGENRE=Salsa
TTITLE0=Tu Voz
TTITLE1=Mala Mujer
TTITLE2=Lágrimas Negras
TTITLE3=Amor
TTITLE4=El Pacífico
TTITLE5=Total
TTITLE6=Quédate Negra
TTITLE7=Me Extraña
TTITLE8=Canoero
TTITLE9=Marina
TTITLE10=Canto A La Caridad
TTITLE11=Seis De La Mañana
EXTD=YEAR: 2004
EXTT0=
EXTT1=
EXTT2=
EXTT3=
EXTT4=
EXTT5=
EXTT6=
EXTT7=
EXTT8=
EXTT9=
EXTT10=
EXTT11=
PLAYORDER=
